# Blender v3.1.2 OBJ File: 'gdfsgfhsdj.blend'
# www.blender.org
mtllib Wall_Corner.mtl
o Wall_Corner_Cube.004
v -0.100000 0.000000 0.000000
v -0.100000 3.000000 0.000000
v 0.000000 0.000000 0.100000
v 0.000000 3.000000 0.100000
v -0.100000 0.000000 0.100000
v -0.100000 3.000000 0.100000
vt 0.500000 0.000000
vt 0.500000 1.000000
vt 0.466667 1.000000
vt 0.466667 0.000000
vt 0.533333 0.000000
vt 0.533333 1.000000
vn -1.0000 0.0000 0.0000
vn 0.0000 0.0000 1.0000
usemtl Material
s off
f 5/1/1 6/2/1 2/3/1 1/4/1
f 3/5/2 4/6/2 6/2/2 5/1/2
